<?xml version="1.0" encoding="utf-8"?>
<!-- Generator: Adobe Illustrator 23.1.1, SVG Export Plug-In . SVG Version: 6.00 Build 0)  -->
<svg version="1.1" id="Capa_1" xmlns="http://www.w3.org/2000/svg" xmlns:xlink="http://www.w3.org/1999/xlink" x="0px" y="0px"
	 viewBox="0 0 507 507" style="enable-background:new 0 0 507 507;" xml:space="preserve">
<path d="M474.1,302.4c-11.6-40.8-44-72.3-85.1-82.8l-51.3-12.4c25.6-45.3,10.4-102.6-34.2-129.3c8.7-27.3,34-45.8,62.6-45.8V0
	c-41.7,0-78.8,26.6-92.3,66.1c-6.5-1.4-13.2-2.1-19.8-2.1c-6.6,0-13.3,0.7-19.8,2.1C220.6,26.6,183.6,0,141.9,0v32
	c28.6,0,53.9,18.6,62.6,45.8c-44.6,26.7-59.8,84.1-34.2,129.3l-51.3,12.4c-41.1,10.5-73.5,42-85.1,82.8c-9.8,31.2-1.9,65.3,20.7,89
	c16.3,16.1,38.4,25,61.3,24.6c9.4,0,18.7-1.4,27.7-3.9c2.9-0.8,5.6-2,8.4-3c24.8,36.5,56.5,67.9,93.3,92.4l8.6,5.5l0.2-0.1l0.2,0.1
	l8.6-5.5c36.8-24.5,68.5-55.9,93.3-92.4c2.8,1,5.5,2.2,8.4,3c9,2.6,18.3,3.9,27.7,3.9c22.9,0.3,45-8.6,61.3-24.6
	C476,367.7,484,333.6,474.1,302.4z M253.9,192h-20.8l-29.6,7.2c-21.8-27.7-16.9-67.8,10.7-89.5c11.3-8.9,25.3-13.7,39.7-13.6
	c0,0,0.1,0,0.1,0c0,0,0.1,0,0.1,0c14.4-0.1,28.4,4.7,39.7,13.6c27.7,21.8,32.5,61.8,10.7,89.5l-29.6-7.2H254 M254,192L254,192h-0.2
	 M276,304H254h-22.1l15.7-64h6.3h6.3L276,304z M134.9,381.2c-20.1,6.8-42.3,2-57.8-12.5c-14.5-15.5-19.3-37.7-12.5-57.8
	c8.5-29.7,32-52.6,61.9-60.3l91-22.4l-22.4,91.1C187.5,349.2,164.5,372.8,134.9,381.2z M254,468.5C254,468.5,254,468.5,254,468.5
	c-0.1,0-0.2,0-0.2,0c-21-15.3-40.1-32.9-57-52.5H254h57.1C294.1,435.6,275,453.3,254,468.5z M254,384h-61.6
	c14.1-13.2,24.8-29.7,31-48H254h30.6c6.2,18.3,16.9,34.8,31,48H254z M430.8,368.7c-15.5,14.5-37.7,19.3-57.8,12.5
	c-29.7-8.5-52.6-32-60.3-61.9l-22.4-91.1l91,22.4c29.9,7.7,53.4,30.6,61.9,60.3C450.1,331.1,445.3,353.3,430.8,368.7z"/>
</svg>
