<svg viewBox="0 0 512 512" xmlns="http://www.w3.org/2000/svg"><path d="m512 256c0 141.386719-114.613281 256-256 256s-256-114.613281-256-256 114.613281-256 256-256 256 114.613281 256 256zm0 0" fill="#ff551c"/><path d="m512 256c0-10.832031-.679688-21.503906-1.984375-31.980469l-78.015625-78.011719-34.433594 34.816407-79.816406-79.816407-48.546875 135.195313-115.203125-115.203125-74 244.992188 144.019531 144.023437c10.476563 1.304687 21.148438 1.984375 31.980469 1.984375 141.386719 0 256-114.613281 256-256zm0 0" fill="#d13400"/><path d="m194.25 101.007812h123.5v104h-123.5zm0 0" fill="#fff"/><path d="m255.605469 101.007812h62.144531v104h-62.144531zm0 0" fill="#dce1eb"/><path d="m86.25 121h67.75v84.007812h-67.75zm0 0" fill="#cdcdcd"/><path d="m80 146.007812h352v219.984376h-352zm0 0" fill="#e6e6e6"/><path d="m255.605469 146.007812h176.394531v219.984376h-176.394531zm0 0" fill="#d7d7d7"/><path d="m80 197.023438h352v117.949218h-352zm0 0" fill="#fff"/><path d="m255.605469 197.023438h176.394531v117.949218h-176.394531zm0 0" fill="#dce1eb"/><path d="m353 256c0 53.570312-43.429688 97-97 97s-97-43.429688-97-97 43.429688-97 97-97 97 43.429688 97 97zm0 0" fill="#cdcdcd"/><path d="m256 159c-.132812 0-.261719.003906-.394531.003906v193.992188c.132812 0 .261719.003906.394531.003906 53.570312 0 97-43.429688 97-97s-43.429688-97-97-97zm0 0" fill="#bebebe"/><path d="m320.5 256c0 35.621094-28.878906 64.5-64.5 64.5s-64.5-28.878906-64.5-64.5 28.878906-64.5 64.5-64.5 64.5 28.878906 64.5 64.5zm0 0" fill="#2864f0"/><path d="m256 191.5c-.132812 0-.261719.007812-.394531.011719v128.976562c.132812 0 .261719.011719.394531.011719 35.621094 0 64.5-28.878906 64.5-64.5s-28.878906-64.5-64.5-64.5zm0 0" fill="#0053bf"/></svg>