<svg id="Capa_1" enable-background="new 0 0 512 512" height="512" viewBox="0 0 512 512" width="512" xmlns="http://www.w3.org/2000/svg"><circle cx="256" cy="256" fill="#00d65b" r="256"/><path d="m512 256c0-9.758-.565-19.383-1.628-28.858l-98.107-98.107-25.623 21.382-76.302-76.302-191.388 161.452 125.589 125.589-86.916 70.197 79.985 79.985c6.075.43 12.205.662 18.39.662 141.385 0 256-114.615 256-256z" fill="#05af4a"/><path d="m426.111 172.809c0-42.027-34.069-76.096-76.096-76.096-7.988 0-15.686 1.237-22.92 3.52-10.931-28.623-38.631-48.961-71.095-48.961s-60.164 20.338-71.096 48.961c-7.234-2.282-14.932-3.52-22.92-3.52-42.027 0-76.096 34.069-76.096 76.096 0 40.563 31.74 73.703 71.737 75.963v182.58h196.749v-182.58c39.998-2.261 71.737-35.401 71.737-75.963z" fill="#fff"/><path d="m350.016 96.713c-7.988 0-15.686 1.237-22.92 3.52-10.932-28.623-38.632-48.961-71.096-48.961-.136 0-.269.007-.405.008v380.072h98.779v-182.58c39.997-2.26 71.737-35.4 71.737-75.963 0-42.027-34.069-76.096-76.095-76.096z" fill="#e9edf5"/><path d="m157.625 376.313h196.749v55.038h-196.749z" fill="#dce1eb"/><path d="m255.595 376.313h98.779v55.038h-98.779z" fill="#bec3d2"/></svg>