<svg height="512pt" viewBox="0 0 512 512" width="512pt" xmlns="http://www.w3.org/2000/svg"><path d="m0 256c0-141.386719 114.613281-256 256-256s256 114.613281 256 256c0 135.808594-105.753906 246.917969-239.398438 255.46875-5.488281.351562-9.425781-18.71875-15-18.71875-4.496093 0-10.5625 19.132812-15 18.90625-135.15625-6.96875-242.601562-118.765625-242.601562-255.65625zm0 0" fill="#ff5e91"/><path d="m257.601562 492.75c5.574219 0 9.511719 19.070312 15 18.71875 132.953126-8.507812 238.28125-118.511719 239.371094-253.355469l-200.472656-200.472656c-13.699219-15.125-33.484375-24.640625-55.5-24.640625-36.214844 0-66.425781 25.710938-73.371094 59.878906h-13.726562v30l22.019531 22.015625c3.445313 6.042969 7.695313 11.558594 12.617187 16.398438l10.363282 10.363281 9.617187 131.863281 8.46875 7.839844 4.078125 27.304687 6.53125 6.617188v4.066406c0 3.671875-2.988281 6.660156-6.667968 6.660156h-49.261719c-27.9375 0-50.667969 22.730469-50.667969 50.671876v6.230468c0 15.363282 6.882812 29.140625 17.714844 38.4375l56.566406 56.566406c10.5625 1.90625 21.347656 3.175782 32.320312 3.738282 4.4375.230468 10.503907-18.902344 15-18.902344zm0 0" fill="#e91d81"/><path d="m166 406.679688v6.230468c0 11.398438 9.269531 20.667969 20.671875 20.667969h49.257813c20.21875 0 36.671874 16.453125 36.671874 36.671875v41.21875c-4.960937.320312-9.960937.492188-15 .519531-.53125.011719-1.070312.011719-1.601562.011719-4.5 0-8.960938-.121094-13.398438-.339844v-41.410156c0-3.679688-2.992187-6.671875-6.671874-6.671875h-49.257813c-27.941406 0-50.671875-22.726563-50.671875-50.667969v-6.230468c0-27.941407 22.730469-50.667969 50.671875-50.667969h49.257813c3.679687 0 6.671874-2.992188 6.671874-6.660157v-61.230468h30v61.230468c0 20.207032-16.453124 36.660157-36.671874 36.660157h-49.257813c-11.402344 0-20.671875 9.269531-20.671875 20.667969zm0 0" fill="#fff"/><path d="m272.601562 470.25v41.21875c-4.960937.320312-9.960937.492188-15 .519531v-71.308593c9.089844 6.679687 15 17.449218 15 29.570312zm0 0" fill="#fff5ca"/><path d="m272.601562 288.121094v61.230468c0 12.121094-5.910156 22.882813-15 29.5625v-90.792968zm0 0" fill="#fff5ca"/><path d="m226.335938 273.511719 9.730468 65.15625h21.410156v-65.15625zm0 0" fill="#57545c"/><path d="m288.613281 273.511719-9.730469 65.15625h-21.40625v-65.15625zm0 0" fill="#3a383f"/><path d="m212.898438 157.84375 10.621093 145.675781h67.910157l10.625-145.675781zm0 0" fill="#6977eb"/><path d="m302.050781 157.839844-.699219 9.621094-9.921874 136.058593h-33.949219v-145.679687zm0 0" fill="#2c4ce8"/><path d="m330.878906 107.878906c0 41.351563-33.527344 74.875-74.878906 74.875s-74.878906-33.523437-74.878906-74.875c0-41.355468 33.527344-74.878906 74.878906-74.878906s74.878906 33.523438 74.878906 74.878906zm0 0" fill="#57545c"/><path d="m330.878906 107.878906c0 5.140625-.519531 10.152344-1.5 15-3.679687 18.082032-13.878906 33.800782-28.027344 44.582032-12.222656 9.320312-27.390624 14.960937-43.871093 15.269531v-149.710938c35.558593.691407 65.039062 26.160157 71.898437 59.859375.980469 4.839844 1.5 9.859375 1.5 15zm0 0" fill="#3a383f"/><path d="m168.902344 92.878906h174.195312v30h-174.195312zm0 0" fill="#00e9f3"/><path d="m257.480469 92.878906h85.621093v30h-85.621093zm0 0" fill="#00b8c0"/><path d="m257.476562 266.417969c-8.003906 0-14.554687-6.550781-14.554687-14.554688v-26.226562c0-8.003907 6.550781-14.550781 14.554687-14.550781 8.003907 0 14.550782 6.546874 14.550782 14.550781v26.226562c0 8.003907-6.546875 14.554688-14.550782 14.554688zm0 0" fill="#00e9f3"/><path d="m272.03125 225.640625v26.21875c0 8.011719-6.550781 14.5625-14.550781 14.5625v-55.34375c4 0 7.640625 1.640625 10.28125 4.28125 2.628906 2.640625 4.269531 6.28125 4.269531 10.28125zm0 0" fill="#00b8c0"/></svg>