<svg height="512" viewBox="0 0 64 64" width="512" xmlns="http://www.w3.org/2000/svg"><g id="Money-2" data-name="Money"><path d="m42 43a7 7 0 1 0 -7-7 7 7 0 0 0 7 7zm0-7a2 2 0 0 1 0-4 2 2 0 0 1 2 2 2 2 0 1 0 -2 2 2 2 0 0 1 0 4 2 2 0 0 1 -2-2 2 2 0 1 0 2-2z" fill="#f1f2f2"/><path d="m11 17h-8v18h8v-2-14z" fill="#006df0"/><path d="m24 25h37v22h-37z" fill="#5eac24"/><path d="m59 25h2v22h-2z" fill="#4e901e"/><path d="m58 31v10a3 3 0 0 0 -3 3h-25a3 3 0 0 0 -3-3v-10a3 3 0 0 0 3-3h25a3 3 0 0 0 3 3z" fill="#91dc5a"/><circle cx="42" cy="36" fill="#f1f2f2" r="7"/><path d="m32.66 28-3-3h9.17l-4.24-4.24a6.008 6.008 0 0 0 -4.249-1.76h-19.341v14h2l2.28 1.14a10 10 0 0 0 8.72.1v-5.8a5.978 5.978 0 0 0 1.8-1.24l.2-.2 3.12 3.12 1.859 1.859a2.09 2.09 0 0 0 2.817.188 2.015 2.015 0 0 0 .1-2.927z" fill="#ffbcab"/><path d="m9 17h2v18h-2z" fill="#005ece"/><path d="m41 31v.184a2.993 2.993 0 0 0 1 5.816 1 1 0 1 1 -1 1 1 1 0 0 0 -2 0 3 3 0 0 0 2 2.816v.184a1 1 0 0 0 2 0v-.184a2.993 2.993 0 0 0 -1-5.816 1 1 0 1 1 1-1 1 1 0 0 0 2 0 3 3 0 0 0 -2-2.816v-.184a1 1 0 0 0 -2 0z" fill="#ff9811"/><g fill="#f1f2f2"><path d="m31 37a1 1 0 0 0 0-2h-1a1 1 0 0 0 0 2z"/><path d="m55 36a1 1 0 0 0 -1-1h-1a1 1 0 0 0 0 2h1a1 1 0 0 0 1-1z"/></g></g></svg>