<svg id="Layer_1" enable-background="new 0 0 511.965 511.965" height="512" viewBox="0 0 511.965 511.965" width="512" xmlns="http://www.w3.org/2000/svg"><g><path d="m50.508 76.635 102.737-59.315 102.737 59.315v118.631l-102.737 59.316-102.737-59.316z" fill="#ffda44"/><path d="m358.72 254.58-102.737-59.315-102.738 59.315v118.631l52.996 30.597c12.215 7.052 19.74 20.086 19.74 34.19v28.964c0 16.57 13.432 30.002 30.002 30.002 16.57 0 30.002-13.432 30.002-30.002v-28.964c0-14.105 7.525-27.138 19.74-34.19l52.996-30.597v-118.631z" fill="#ffda44"/><path d="m255.982 195.265v301.7c16.57 0 30.002-13.432 30.002-30.002v-28.964c0-14.104 7.525-27.138 19.74-34.19l52.996-30.597v-118.632z" fill="#ffb655"/><path d="m255.982 76.635 102.738-59.315 102.737 59.315v118.631l-102.737 59.316-102.738-59.316z" fill="#ffda44"/><g fill="#ffb655"><path d="m255.982 76.635 102.738-59.315 102.737 59.315v118.631l-102.737 59.316-102.738-59.316z"/><path d="m476.457 67.976-117.737-67.976-102.738 59.315-102.737-59.315-117.737 67.976v135.951l102.737 59.315v118.629l60.496 34.928c7.55 4.358 12.239 12.481 12.239 21.2v28.964c0 24.814 20.188 45.002 45.002 45.002s45.002-20.188 45.002-45.002v-28.964c0-8.719 4.689-16.842 12.239-21.2l60.496-34.928v-118.629l102.737-59.315v-135.951zm-410.949 17.32 87.737-50.655 87.737 50.655v101.309l-87.739 50.656-87.736-50.654v-101.311zm232.716 305.522c-16.802 9.699-27.239 27.778-27.239 47.181v28.964c0 8.272-6.729 15.002-15.002 15.002s-15.002-6.729-15.002-15.002v-28.964c0-19.402-10.438-37.481-27.239-47.181l-45.496-26.268v-101.308l87.737-50.655 87.737 50.655v101.309zm148.233-204.212-87.736 50.654-87.739-50.656v-101.308l87.737-50.655 87.737 50.655v101.31z"/><path d="m255.982 253.456-52.342 30.22v60.44l52.342 30.22 52.343-30.22v-60.44z"/><path d="m358.72 75.511-52.343 30.22v60.44l52.343 30.22 52.342-30.22v-60.44z"/><path d="m153.245 75.511-52.343 30.22v60.44l52.343 30.22 52.343-30.22v-60.44z"/></g><path d="m358.72 75.511-52.343 30.22v60.44l52.343 30.22 52.342-30.22v-60.44z" fill="#ff7c48"/><path d="m358.72 0-102.738 59.315v153.271l87.737 50.655v101.309l-45.496 26.268c-16.802 9.699-27.239 27.778-27.239 47.181v28.964c0 8.272-6.729 15.002-15.002 15.002v30c24.814 0 45.002-20.188 45.002-45.002v-28.964c0-8.719 4.689-16.842 12.239-21.2l60.496-34.928v-118.629l102.737-59.315v-135.951zm87.737 186.606-87.736 50.654-87.739-50.656v-101.308l87.737-50.655 87.737 50.655v101.31z" fill="#ff7c48"/><path d="m308.325 283.676-52.343-30.22v120.88l52.343-30.22z" fill="#ff7c48"/></g></svg>