<?xml version="1.0" encoding="utf-8"?>
<!-- Generator: Adobe Illustrator 23.1.1, SVG Export Plug-In . SVG Version: 6.00 Build 0)  -->
<svg version="1.1" id="Layer_1" xmlns="http://www.w3.org/2000/svg" xmlns:xlink="http://www.w3.org/1999/xlink" x="0px" y="0px"
	 viewBox="0 0 512 512" style="enable-background:new 0 0 512 512;" xml:space="preserve">
<style type="text/css">
	.st0{fill:#D6F4FC;}
	.st1{fill:#4D4E59;}
	.st2{fill:#E8F8FC;}
	.st3{fill:#FE4F60;}
	.st4{fill:#FF6D7A;}
	.st5{fill:#BDEFFC;}
	.st6{fill:#42434D;}
</style>
<g>
	<path class="st0" d="M438.5,246.4c10.4,18-2.1,40.6-22.9,41.4c-75.9,3-153.4,21.9-226.3,59.3l-24.1,13.9c0,0.1-0.3-0.6,58.4,101.6
		c5.4,9.4,2.2,21.3-7.1,26.7l-19,11c-9.3,5.4-21.3,2.2-26.7-7.2l-58.6-101.5l-9.5,5.5C83.9,408,60,401.6,49.2,382.9l-44-76.1
		c-10.8-18.7-4.4-42.6,14.3-53.4l86.7-50.1c66.3-42.9,122.4-99.6,164.5-166.4c11.1-17.6,36.9-17.1,47.3,0.9l37.6,65.1
		c21.6-12.5,49.2-5.1,61.7,16.5c12.5,21.6,5.1,49.2-16.5,61.7L438.5,246.4z"/>
	<path class="st1" d="M417.4,119.6c12.5,21.6,5.1,49.2-16.5,61.7L355.7,103C377.3,90.6,404.9,98,417.4,119.6z"/>
	<g>
		<path class="st0" d="M460.5,95.1c-2.4-4.2-1-9.5,3.2-11.9l22.4-13c4.2-2.4,9.5-1,11.9,3.2c2.4,4.2,1,9.5-3.2,11.9l-22.4,13
			C468.2,100.7,462.9,99.3,460.5,95.1z"/>
		<path class="st0" d="M404.3,46.5c-4.6-1.2-7.4-6-6.1-10.6l5.5-20.4c1.2-4.6,6-7.4,10.6-6.1c4.6,1.2,7.4,6,6.1,10.6L415,40.4
			C413.7,45,409,47.7,404.3,46.5z"/>
		<path class="st0" d="M501.1,184.1l-20.4-5.5c-4.6-1.2-7.4-6-6.1-10.6c1.2-4.6,6-7.4,10.6-6.1l20.4,5.5c4.6,1.2,7.4,6,6.1,10.6
			C510.5,182.6,505.7,185.4,501.1,184.1z"/>
	</g>
	<path class="st2" d="M318.1,37.9c5.2,9,4.9,20.2-0.9,28.8c-46.3,69.8-108.4,132.9-184.4,182L31.2,307.4c-7,4-12.5,9.6-16.4,16.1
		l-9.6-16.7c-10.8-18.7-4.4-42.6,14.3-53.4l86.7-50.1c66.3-42.9,122.4-99.6,164.5-166.4C281.8,19.4,307.7,19.9,318.1,37.9
		L318.1,37.9z"/>
	<path class="st3" d="M106.2,203.3l83,143.8c-16.6,9.6-70.1,40.5-86.7,50.1C83.9,408,60,401.6,49.2,382.9l-44-76.1
		c-10.8-18.7-4.4-42.6,14.3-53.4L106.2,203.3z"/>
	<path class="st4" d="M132.5,248.9c-110.3,63.7-103,59.3-106.6,62c-6.7,5.2-16.5,3.2-20.7-4.1c-10.8-18.7-4.4-42.6,14.3-53.4
		l86.7-50.1L132.5,248.9z"/>
	<path class="st5" d="M180.9,388.6c-30.9,17.9-8.2,4.7-53,30.6l-15.9-27.5l53.1-30.6L180.9,388.6z"/>
	<path class="st6" d="M414.7,168.9c-3.6,4.9-8.2,9.2-13.8,12.4L355.7,103c5.6-3.2,11.6-5.1,17.7-5.8
		C375.6,101.2,412.7,165.4,414.7,168.9z"/>
</g>
</svg>
