<?xml version="1.0" encoding="iso-8859-1"?>
<!-- Generator: Adobe Illustrator 19.0.0, SVG Export Plug-In . SVG Version: 6.00 Build 0)  -->
<svg version="1.1" id="Capa_1" xmlns="http://www.w3.org/2000/svg" xmlns:xlink="http://www.w3.org/1999/xlink" x="0px" y="0px"
	 viewBox="0 0 512 512" style="enable-background:new 0 0 512 512;" xml:space="preserve">
<circle style="fill:#FF4181;" cx="256" cy="256" r="256"/>
<path style="fill:#AD396B;" d="M512,256c0-1.481-0.031-2.955-0.056-4.431L386.129,125.754l-268.6,268.702l116.605,116.605
	c7.21,0.61,14.499,0.939,21.866,0.939C397.385,512,512,397.385,512,256z"/>
<polygon style="fill:#7ACBFF;" points="255.535,256.349 226.837,285.046 117.389,175.598 128.868,164.119 "/>
<g>
	<polygon style="fill:#4EB9FF;" points="255.535,256.349 226.837,285.046 336.286,394.494 347.765,383.015 	"/>
	<polygon style="fill:#4EB9FF;" points="239.332,181.22 222.113,186.959 227.853,169.741 207.441,149.329 190.222,155.068 
		195.962,137.85 175.55,117.437 128.868,164.119 238.316,273.567 284.998,226.886 	"/>
</g>
<g>
	<polygon style="fill:#45A2E0;" points="330.664,272.552 324.924,289.77 342.143,284.031 362.555,304.443 356.815,321.661 
		374.034,315.922 394.446,336.334 347.765,383.015 238.316,273.567 284.998,226.886 	"/>
	
		<rect x="167.064" y="149.822" transform="matrix(0.7071 -0.7071 0.7071 0.7071 -56.8046 178.7402)" style="fill:#45A2E0;" width="40.584" height="16.234"/>
	
		<rect x="198.956" y="181.712" transform="matrix(0.7071 -0.7071 0.7071 0.7071 -70.0136 210.631)" style="fill:#45A2E0;" width="40.584" height="16.234"/>
</g>
<g>
	
		<rect x="333.663" y="316.412" transform="matrix(0.7071 -0.7071 0.7071 0.7071 -125.806 345.3362)" style="fill:#2F73A0;" width="40.584" height="16.234"/>
	
		<rect x="301.772" y="284.522" transform="matrix(0.7071 -0.7071 0.7071 0.7071 -112.5971 313.4453)" style="fill:#2F73A0;" width="40.584" height="16.234"/>
</g>
<polygon style="fill:#FF9356;" points="117.529,394.456 197.375,372.68 214.687,343.467 203.031,285.895 "/>
<polygon style="fill:#FFB14E;" points="214.51,297.374 168.416,297.197 139.204,314.509 117.529,394.456 "/>
<polygon style="fill:#FFCE47;" points="191.551,320.332 214.687,343.467 243.247,326.112 214.51,274.416 "/>
<polygon style="fill:#FFE290;" points="185.772,268.636 168.416,297.197 191.551,320.332 225.989,285.895 "/>
<polygon style="fill:#5B3256;" points="267.397,221.529 214.51,297.374 243.247,326.112 282.3,282.349 "/>
<polygon style="fill:#843561;" points="229.535,229.583 185.772,268.636 214.51,297.374 278.876,233.008 "/>
<path style="fill:#092A40;" d="M282.3,282.349l104.945-117.603c10.017-11.222,9.527-28.349-1.116-38.991l-80.411,49.8l-49.8,80.411
	L282.3,282.349z"/>
<path style="fill:#3A2F4D;" d="M386.129,125.754c-10.642-10.642-27.77-11.133-38.991-1.116L229.535,229.583l26.383,26.383
	L386.129,125.754z"/>
<g>
</g>
<g>
</g>
<g>
</g>
<g>
</g>
<g>
</g>
<g>
</g>
<g>
</g>
<g>
</g>
<g>
</g>
<g>
</g>
<g>
</g>
<g>
</g>
<g>
</g>
<g>
</g>
<g>
</g>
</svg>
