<?xml version="1.0" encoding="iso-8859-1"?>
<!-- Generator: Adobe Illustrator 19.0.0, SVG Export Plug-In . SVG Version: 6.00 Build 0)  -->
<svg version="1.1" id="Capa_1" xmlns="http://www.w3.org/2000/svg" xmlns:xlink="http://www.w3.org/1999/xlink" x="0px" y="0px"
	 viewBox="0 0 512 512" style="enable-background:new 0 0 512 512;" xml:space="preserve">
<circle style="fill:#FFE670;" cx="256" cy="256" r="256"/>
<path style="fill:#FEC000;" d="M512,256c0-14.431-1.213-28.577-3.508-42.357L362.184,67.336l-38.262,38.262
	c-19.2,19.2-22.492,48.358-9.912,70.993L209.517,281.085l-36.337-36.337l-5.068-5.068l-55.436,55.436
	c-19.056,19.055-27.987,45.994-24.091,72.659l0,0c2.349,16.079,10.277,30.279,21.762,40.612l99.443,99.443
	c14.99,2.733,30.431,4.17,46.21,4.17C397.385,512,512,397.385,512,256z"/>
<path style="fill:#FFFFFF;" d="M168.112,239.68l-55.436,55.436c-19.055,19.056-27.987,45.994-24.091,72.66l0,0
	c4.335,29.668,27.636,52.969,57.303,57.305h0.002c26.666,3.897,53.606-5.035,72.662-24.091l55.435-55.435L168.112,239.68z"/>
<path style="fill:#9CFDFF;" d="M273.988,345.562l-55.43,55.43c-9.525,9.525-21.029,16.518-33.481,20.655
	c-12.452,4.122-25.859,5.381-39.188,3.436c-14.828-2.171-28.079-9.086-38.148-19.155l113.307-113.307L273.988,345.562z"/>
<rect x="250.16" y="161.918" transform="matrix(-0.7071 -0.7071 0.7071 -0.7071 280.1001 610.4063)" style="fill:#0088FF;" width="32.62" height="170.548"/>
<rect x="186.955" y="244.809" transform="matrix(-0.7071 0.7071 -0.7071 -0.7071 643.5965 239.3419)" style="fill:#004EB1;" width="170.548" height="16.31"/>
<rect x="175.092" y="280.338" transform="matrix(-0.7071 -0.7071 0.7071 -0.7071 98.8654 685.4875)" style="fill:#00E8F2;" width="32.62" height="83.859"/>
<rect x="155.226" y="319.887" transform="matrix(-0.7071 0.7071 -0.7071 -0.7071 568.5258 420.5923)" style="fill:#00B7BE;" width="83.859" height="16.31"/>
<path style="fill:#E02424;" d="M362.185,67.336l-38.262,38.262c-23.199,23.199-23.199,60.947,0.001,84.147
	c23.199,23.199,60.947,23.2,84.147,0.001l38.262-38.262L362.185,67.336z M338.145,175.523
	c-15.358-15.358-15.358-40.346-0.001-55.703l15.951-15.951l55.703,55.703l-15.951,15.951
	C378.49,190.88,353.502,190.88,338.145,175.523z"/>
<path style="fill:#990011;" d="M404.258,109.41l-22.309,22.309l27.853,27.853l-15.952,15.952c-15.358,15.359-40.348,15.358-55.706,0
	l-14.22,14.22c3.995,3.995,8.422,7.305,13.138,9.928c22.641,12.587,51.802,9.277,71.008-9.928l38.261-38.261L404.258,109.41z"/>
<g>
</g>
<g>
</g>
<g>
</g>
<g>
</g>
<g>
</g>
<g>
</g>
<g>
</g>
<g>
</g>
<g>
</g>
<g>
</g>
<g>
</g>
<g>
</g>
<g>
</g>
<g>
</g>
<g>
</g>
</svg>
