<svg height="512pt" viewBox="-18 0 512 512.128" width="512pt" xmlns="http://www.w3.org/2000/svg"><path d="m92.046875 380.878906h64v51.25h-64zm0 0" fill="#e5b6a8"/><path d="m32.0625 288.128906c0 8.835938-7.160156 16-16 16-8.835938 0-16-7.164062-16-16 0-8.835937 7.164062-16 16-16 8.839844 0 16 7.164063 16 16zm0 0" fill="#e5b6a8"/><path d="m62.03125 384.144531-57.96875-85.457031 22.53125-22.589844 69.328125 68.148438zm0 0" fill="#e5b6a8"/><path d="m367.800781 400.128906h-96c-4.410156 0-8 3.605469-8 8v103.871094h7.34375c.214844.015625.421875.128906.65625.128906h96c.230469 0 .421875-.113281.65625-.128906h7.34375v-103.871094c0-4.394531-3.609375-8-8-8zm0 0" fill="#5d9cec"/><path d="m279.800781 354.207031h80v45.921875h-80zm0 0" fill="#e5b6a8"/><path d="m476.03125 187.992188c0 11.046874-8.953125 20-20 20s-20-8.953126-20-20c0-11.046876 8.953125-20 20-20s20 8.953124 20 20zm0 0" fill="#e5b6a8"/><path d="m400.625 328.34375-11.359375-77.808594 52.308594-76.335937 30.457031 25.792969zm0 0" fill="#e5b6a8"/><path d="m295.800781 424.128906c0 4.417969-3.582031 8-8 8s-8-3.582031-8-8c0-4.417968 3.582031-8 8-8s8 3.582032 8 8zm0 0" fill="#4a89dc"/><path d="m168.046875 464.144531c0 4.390625-3.605469 8-8 8h-72c-4.40625 0-8-3.609375-8-8v-24.015625c0-4.394531 3.59375-8 8-8h72c4.394531 0 8 3.605469 8 8zm0 0" fill="#e6e9ed"/><path d="m72.046875 472.128906c0-4.394531 3.59375-8 8-8h88c4.394531 0 8 3.605469 8 8v32c0 4.40625-3.605469 8-8 8h-88c-4.40625 0-8-3.59375-8-8zm0 0" fill="#656d78"/><path d="m92.0625 452.128906c-2.199219 0-4.03125-1.785156-4.03125-4 0-2.199218 1.753906-4 3.953125-4h.078125c2.203125 0 4 1.800782 4 4 0 2.214844-1.796875 4-4 4zm0 0" fill="#ccd1d9"/><g fill="#f0c7b7"><path d="m268.03125 76.007812c0 11.046876-8.953125 20-20 20s-20-8.953124-20-20c0-11.046874 8.953125-20 20-20s20 8.953126 20 20zm0 0"/><path d="m316.03125 36c0 11.046875-8.953125 20-20 20s-20-8.953125-20-20 8.953125-20 20-20 20 8.953125 20 20zm0 0"/><path d="m364.03125 20c0 11.046875-8.953125 20-20 20s-20-8.953125-20-20 8.953125-20 20-20 20 8.953125 20 20zm0 0"/><path d="m412.03125 36c0 11.046875-8.953125 20-20 20s-20-8.953125-20-20 8.953125-20 20-20 20 8.953125 20 20zm0 0"/><path d="m228.03125 76.007812h40v115.992188h-40zm0 0"/><path d="m276.03125 36h40v156h-40zm0 0"/><path d="m324.03125 20h40v172h-40zm0 0"/><path d="m372.015625 36h40v216h-40zm0 0"/><path d="m412.015625 283.984375c0 50.804687-41.1875 91.992187-91.992187 91.992187-50.804688 0-91.992188-41.1875-91.992188-91.992187s41.1875-91.992187 91.992188-91.992187c50.804687 0 91.992187 41.1875 91.992187 91.992187zm0 0"/><path d="m228.03125 191.992188h183.984375v91.992187h-183.984375zm0 0"/><path d="m120.0625 144.136719c0 8.835937-7.160156 16-16 16-8.835938 0-16-7.164063-16-16 0-8.835938 7.164062-16 16-16 8.839844 0 16 7.164062 16 16zm0 0"/><path d="m200.0625 192.128906c0 8.835938-7.160156 16-16 16-8.835938 0-16-7.164062-16-16 0-8.835937 7.164062-16 16-16 8.839844 0 16 7.164063 16 16zm0 0"/><path d="m80.0625 160.128906c0 8.835938-7.160156 16-16 16-8.835938 0-16-7.164062-16-16 0-8.835937 7.164062-16 16-16 8.839844 0 16 7.164063 16 16zm0 0"/><path d="m160.0625 160.128906c0 8.835938-7.160156 16-16 16-8.835938 0-16-7.164062-16-16 0-8.835937 7.164062-16 16-16 8.839844 0 16 7.164063 16 16zm0 0"/><path d="m200.0625 340.222656c0 41.976563-34.023438 76-76 76-41.972656 0-76-34.023437-76-76 0-41.972656 34.027344-76 76-76 41.976562 0 76 34.027344 76 76zm0 0"/><path d="m48.0625 160.128906h32v180.054688h-32zm0 0"/><path d="m88.0625 144.136719h32v196.046875h-32zm0 0"/><path d="m128.0625 160.136719h32v180.046875h-32zm0 0"/><path d="m168.0625 192.128906h32v148.054688h-32zm0 0"/><path d="m48.0625 264.503906h152v75.71875h-152zm0 0"/></g><path d="m72.046875 504.128906h104v8h-104zm0 0" fill="#656d78"/></svg>