<svg height="512pt" viewBox="0 0 512 512" width="512pt" xmlns="http://www.w3.org/2000/svg"><path d="m512 256c0 141.386719-114.613281 256-256 256s-256-114.613281-256-256 114.613281-256 256-256 256 114.613281 256 256zm0 0" fill="#0095ff"/><path d="m512 256c0-2.769531-.058594-5.527344-.148438-8.277344l-153.863281-153.863281-48.09375 33.035156-47.894531 110.339844-147.125 119.726563-1.601562 32.160156 122.042968 122.042968c6.824219.546876 13.71875.835938 20.683594.835938 141.386719 0 256-114.613281 256-256zm0 0" fill="#0050c3"/><path d="m406.5625 142.449219-39.085938 39.105469-38.328124-10.265626-10.25-38.3125 39.089843-39.117187c-23.066406-6.203125-48.757812-.28125-66.867187 17.828125-19.019532 19.023438-24.589844 46.386719-16.785156 70.320312-.078126.078126-.148438.140626-.230469.222657l-160.832031 160.820312c-6.359376 6.347657-9.539063 14.699219-9.539063 23.046875 0 8.324219 3.179687 16.667969 9.539063 23.023438 12.738281 12.734375 33.367187 12.730468 46.082031 0l162.011719-162.132813c23.21875 6.457031 49.136718.570313 67.394531-17.675781 18.105469-18.105469 24.039062-43.78125 17.800781-66.863281zm-265.273438 233.304687-11.695312-3.128906-3.136719-11.6875 9.488281-9.472656 11.691407 3.125 3.121093 11.6875zm0 0" fill="#fff5f5"/><path d="m113.273438 389.132812c12.738281 12.734376 33.367187 12.730469 46.082031 0l162.011719-162.132812c23.21875 6.457031 49.136718.570312 67.394531-17.675781 18.105469-18.109375 24.039062-43.785157 17.800781-66.863281l-39.085938 39.105468-38.328124-10.265625-181.507813 183.296875 3.117187 11.6875-9.46875 9.480469-11.695312-3.128906zm0 0" fill="#a2d8f4"/></svg>